<svg width="20" height="20" viewBox="0 0 20 20" fill="none" xmlns="http://www.w3.org/2000/svg">
<path d="M15.8333 1.66669H4.16663C3.50358 1.66669 2.8677 1.93008 2.39886 2.39892C1.93002 2.86776 1.66663 3.50365 1.66663 4.16669V15.8334C1.66663 16.4964 1.93002 17.1323 2.39886 17.6011C2.8677 18.07 3.50358 18.3334 4.16663 18.3334H15.8333C15.9704 18.3314 16.107 18.3175 16.2416 18.2917L16.4916 18.2334H16.55H16.5916L16.9 18.1167L17.0083 18.0584C17.0916 18.0084 17.1833 17.9667 17.2666 17.9084C17.3779 17.8265 17.4837 17.7374 17.5833 17.6417L17.6416 17.5667C17.7234 17.4838 17.7987 17.3946 17.8666 17.3L17.9416 17.1917C17.9998 17.0989 18.05 17.0013 18.0916 16.9C18.1145 16.86 18.134 16.8182 18.15 16.775C18.1916 16.675 18.2166 16.5667 18.25 16.4584V16.3334C18.2972 16.1705 18.3252 16.0027 18.3333 15.8334V4.16669C18.3333 3.50365 18.0699 2.86776 17.6011 2.39892C17.1322 1.93008 16.4963 1.66669 15.8333 1.66669ZM4.16663 16.6667C3.94561 16.6667 3.73365 16.5789 3.57737 16.4226C3.42109 16.2663 3.33329 16.0544 3.33329 15.8334V12.2417L6.07496 9.49169C6.15243 9.41358 6.2446 9.35158 6.34615 9.30928C6.44769 9.26697 6.55662 9.24519 6.66663 9.24519C6.77664 9.24519 6.88556 9.26697 6.98711 9.30928C7.08866 9.35158 7.18082 9.41358 7.25829 9.49169L14.425 16.6667H4.16663ZM16.6666 15.8334C16.6658 15.9361 16.6461 16.0378 16.6083 16.1334C16.5892 16.174 16.567 16.213 16.5416 16.25C16.5193 16.2853 16.4942 16.3187 16.4666 16.35L12.0083 11.8917L12.7416 11.1584C12.8191 11.0802 12.9113 11.0183 13.0128 10.9759C13.1144 10.9336 13.2233 10.9119 13.3333 10.9119C13.4433 10.9119 13.5522 10.9336 13.6538 10.9759C13.7553 11.0183 13.8475 11.0802 13.925 11.1584V11.1584L16.6666 13.9084V15.8334ZM16.6666 11.55L15.1 10C14.6231 9.54751 13.9907 9.29525 13.3333 9.29525C12.6759 9.29525 12.0435 9.54751 11.5666 10L10.8333 10.7334L8.43329 8.33335C7.95639 7.88085 7.32404 7.62859 6.66663 7.62859C6.00921 7.62859 5.37686 7.88085 4.89996 8.33335L3.33329 9.88335V4.16669C3.33329 3.94567 3.42109 3.73371 3.57737 3.57743C3.73365 3.42115 3.94561 3.33335 4.16663 3.33335H15.8333C16.0543 3.33335 16.2663 3.42115 16.4225 3.57743C16.5788 3.73371 16.6666 3.94567 16.6666 4.16669V11.55Z" fill="black"/>
</svg>
